<svg xmlns="http://www.w3.org/2000/svg" width="1200" height="700" viewBox="0 0 1200 700" fill="none">
  <defs>
    <linearGradient id="g1" x1="0" y1="0" x2="1" y2="1">
      <stop offset="0" stop-color="#7ad9ff" stop-opacity="0.28"/>
      <stop offset="1" stop-color="#7bf6d0" stop-opacity="0.08"/>
    </linearGradient>
    <linearGradient id="g2" x1="0" y1="0" x2="0" y2="1">
      <stop offset="0" stop-color="#ffffff" stop-opacity="0.4"/>
      <stop offset="1" stop-color="#ffffff" stop-opacity="0"/>
    </linearGradient>
  </defs>

  <rect width="1200" height="700" fill="url(#g1)"/>

  <g stroke="#ffffff" stroke-opacity="0.12" stroke-width="1">
    <path d="M0 80H1200"/>
    <path d="M0 160H1200"/>
    <path d="M0 240H1200"/>
    <path d="M0 320H1200"/>
    <path d="M0 400H1200"/>
    <path d="M0 480H1200"/>
    <path d="M0 560H1200"/>
    <path d="M0 640H1200"/>
  </g>

  <g stroke="#ffffff" stroke-opacity="0.1" stroke-width="1">
    <path d="M80 0V700"/>
    <path d="M160 0V700"/>
    <path d="M240 0V700"/>
    <path d="M320 0V700"/>
    <path d="M400 0V700"/>
    <path d="M480 0V700"/>
    <path d="M560 0V700"/>
    <path d="M640 0V700"/>
    <path d="M720 0V700"/>
    <path d="M800 0V700"/>
    <path d="M880 0V700"/>
    <path d="M960 0V700"/>
    <path d="M1040 0V700"/>
    <path d="M1120 0V700"/>
  </g>

  <circle cx="240" cy="110" r="6" fill="#fff" fill-opacity="0.7"/>
  <circle cx="932" cy="152" r="5" fill="#ffd486" fill-opacity="0.85"/>
  <circle cx="1052" cy="452" r="4" fill="#9bfff0" fill-opacity="0.8"/>
  <circle cx="192" cy="542" r="4" fill="#fff" fill-opacity="0.55"/>

  <rect x="0" y="0" width="1200" height="180" fill="url(#g2)"/>
</svg>
