<svg xmlns="http://www.w3.org/2000/svg" width="260" height="260" viewBox="0 0 260 260" fill="none">
  <ellipse cx="130" cy="238" rx="82" ry="16" fill="#173a2b" fill-opacity="0.24"/>
  <circle cx="88" cy="102" r="22" fill="#9a6f56"/>
  <circle cx="172" cy="102" r="22" fill="#9a6f56"/>
  <circle cx="88" cy="102" r="12" fill="#f1c4a3"/>
  <circle cx="172" cy="102" r="12" fill="#f1c4a3"/>
  <ellipse cx="130" cy="148" rx="74" ry="66" fill="#b98867"/>
  <ellipse cx="130" cy="162" rx="64" ry="54" fill="#9a6f56"/>
  <ellipse cx="130" cy="166" rx="34" ry="28" fill="#f1c4a3"/>
  <ellipse cx="106" cy="145" rx="8" ry="9" fill="#3b393f"/>
  <ellipse cx="154" cy="145" rx="8" ry="9" fill="#3b393f"/>
  <ellipse cx="130" cy="162" rx="11" ry="8" fill="#f1839d"/>
  <circle cx="92" cy="160" r="10" fill="#e3ad98" fill-opacity="0.7"/>
  <circle cx="168" cy="160" r="10" fill="#e3ad98" fill-opacity="0.7"/>
  <path d="M108 184C114 190 122 193 130 193C138 193 146 190 152 184" stroke="#7a5644" stroke-width="6" stroke-linecap="round"/>
  <ellipse cx="130" cy="136" rx="68" ry="60" fill="url(#g)" fill-opacity="0.26"/>
  <defs>
    <radialGradient id="g" cx="0" cy="0" r="1" gradientUnits="userSpaceOnUse" gradientTransform="translate(130 108) rotate(90) scale(70 70)">
      <stop stop-color="#fff5ed"/>
      <stop offset="1" stop-color="#fff5ed" stop-opacity="0"/>
    </radialGradient>
  </defs>
</svg>
