<svg xmlns="http://www.w3.org/2000/svg" width="260" height="260" viewBox="0 0 260 260" fill="none">
  <ellipse cx="130" cy="238" rx="82" ry="16" fill="#173a2b" fill-opacity="0.24"/>
  <path d="M70 96L98 44L118 97L70 96Z" fill="#f8b96f"/>
  <path d="M190 96L162 44L142 97L190 96Z" fill="#f8b96f"/>
  <path d="M80 95L97 66L110 97L80 95Z" fill="#ffc6d4"/>
  <path d="M180 95L163 66L150 97L180 95Z" fill="#ffc6d4"/>
  <ellipse cx="130" cy="146" rx="74" ry="66" fill="#ffc778"/>
  <ellipse cx="130" cy="160" rx="64" ry="54" fill="#efab5b"/>
  <ellipse cx="106" cy="144" rx="8" ry="9" fill="#3d3c41"/>
  <ellipse cx="154" cy="144" rx="8" ry="9" fill="#3d3c41"/>
  <ellipse cx="130" cy="163" rx="11" ry="8" fill="#f4879f"/>
  <path d="M86 161H56" stroke="#cc8a3e" stroke-width="5" stroke-linecap="round"/>
  <path d="M174 161H204" stroke="#cc8a3e" stroke-width="5" stroke-linecap="round"/>
  <path d="M86 171H48" stroke="#cc8a3e" stroke-width="5" stroke-linecap="round"/>
  <path d="M174 171H212" stroke="#cc8a3e" stroke-width="5" stroke-linecap="round"/>
  <ellipse cx="130" cy="138" rx="68" ry="62" fill="url(#g)" fill-opacity="0.28"/>
  <defs>
    <radialGradient id="g" cx="0" cy="0" r="1" gradientUnits="userSpaceOnUse" gradientTransform="translate(130 108) rotate(90) scale(72 70)">
      <stop stop-color="#fff7ea"/>
      <stop offset="1" stop-color="#fff7ea" stop-opacity="0"/>
    </radialGradient>
  </defs>
</svg>
