<svg xmlns="http://www.w3.org/2000/svg" width="260" height="260" viewBox="0 0 260 260" fill="none">
  <ellipse cx="130" cy="238" rx="80" ry="16" fill="#173a2b" fill-opacity="0.24"/>
  <ellipse cx="108" cy="62" rx="24" ry="46" fill="#fff5ef"/>
  <ellipse cx="153" cy="62" rx="24" ry="46" fill="#fff5ef"/>
  <ellipse cx="108" cy="66" rx="12" ry="34" fill="#ffcfdc"/>
  <ellipse cx="153" cy="66" rx="12" ry="34" fill="#ffcfdc"/>
  <ellipse cx="130" cy="140" rx="74" ry="68" fill="#fffdf7"/>
  <ellipse cx="130" cy="154" rx="64" ry="54" fill="#f5e8dc"/>
  <ellipse cx="106" cy="140" rx="8" ry="9" fill="#3c3a3f"/>
  <ellipse cx="154" cy="140" rx="8" ry="9" fill="#3c3a3f"/>
  <ellipse cx="130" cy="160" rx="11" ry="8" fill="#f792a8"/>
  <circle cx="90" cy="157" r="10" fill="#ffc7d6" fill-opacity="0.75"/>
  <circle cx="170" cy="157" r="10" fill="#ffc7d6" fill-opacity="0.75"/>
  <path d="M105 181C113 188 121 191 130 191C139 191 147 188 155 181" stroke="#c59f8a" stroke-width="6" stroke-linecap="round"/>
  <ellipse cx="130" cy="134" rx="66" ry="62" fill="url(#g)" fill-opacity="0.3"/>
  <defs>
    <radialGradient id="g" cx="0" cy="0" r="1" gradientUnits="userSpaceOnUse" gradientTransform="translate(130 104) rotate(90) scale(70 72)">
      <stop stop-color="#ffffff"/>
      <stop offset="1" stop-color="#ffffff" stop-opacity="0"/>
    </radialGradient>
  </defs>
</svg>
