<svg xmlns="http://www.w3.org/2000/svg" width="220" height="220" viewBox="0 0 220 220" fill="none">
  <rect x="34" y="48" width="152" height="136" rx="34" fill="#f7c5d2"/>
  <rect x="50" y="66" width="120" height="98" rx="24" fill="#f36f85"/>
  <ellipse cx="90" cy="108" rx="14" ry="14" fill="#2f3d77"/>
  <ellipse cx="130" cy="108" rx="14" ry="14" fill="#2f3d77"/>
  <path d="M94 128C99 133 104 136 110 136C116 136 121 133 126 128" stroke="#26355f" stroke-width="8" stroke-linecap="round"/>
  <path d="M74 52C66 36 61 24 60 16" stroke="#f7c5d2" stroke-width="18" stroke-linecap="round"/>
  <path d="M146 52C154 36 159 24 160 16" stroke="#f7c5d2" stroke-width="18" stroke-linecap="round"/>
  <path d="M98 149L112 140L126 149" stroke="#f8e04f" stroke-width="10" stroke-linecap="round" stroke-linejoin="round"/>
  <circle cx="188" cy="98" r="6" fill="#ef6f92"/>
  <circle cx="188" cy="116" r="6" fill="#ef6f92"/>
</svg>
